<mxfile host="Electron" agent="Mozilla/5.0 (Macintosh; Intel Mac OS X 10_15_7) AppleWebKit/537.36 (KHTML, like Gecko) draw.io/24.7.5 Chrome/126.0.6478.183 Electron/31.3.0 Safari/537.36" version="24.7.5">
  <diagram name="Page-1" id="bMUf6p7ky4Y4NQqZ0rA_">
    <mxGraphModel dx="558" dy="434" grid="1" gridSize="10" guides="1" tooltips="1" connect="1" arrows="1" fold="1" page="1" pageScale="1" pageWidth="1169" pageHeight="827" math="0" shadow="0">
      <root>
        <mxCell id="0" />
        <mxCell id="1" parent="0" />
        <mxCell id="zqN81Qe1Mx1F9NyAOP3Z-4" value="" style="whiteSpace=wrap;html=1;fillColor=none;dashed=1;strokeColor=#7EA6E0;" vertex="1" parent="1">
          <mxGeometry x="150" y="55" width="200" height="120" as="geometry" />
        </mxCell>
        <mxCell id="zqN81Qe1Mx1F9NyAOP3Z-11" value="" style="shape=image;aspect=fixed;image=data:image/svg+xml,PHN2ZyB3aWR0aD0iNzgiIGhlaWdodD0iMjUiIHZpZXdCb3g9IjAgMCA3OCAyNSIgZmlsbD0ibm9uZSIgeG1sbnM9Imh0dHA6Ly93d3cudzMub3JnLzIwMDAvc3ZnIj4KPHBhdGggZD0iTTIuODc4MzUgMy42MjQ4OEgwVjE4LjQzOUgyLjg3ODM1VjMuNjI0ODhaIiBmaWxsPSIjMDA1NURDIi8+CjxwYXRoIGQ9Ik03Ny45Njg3IDMuNjI0ODhINzUuMDkwNFYxOC40MzlINzcuOTY4N1YzLjYyNDg4WiIgZmlsbD0iIzAwNTVEQyIvPgo8cGF0aCBkPSJNNi44MjA0NCAyMS4wNzg2TDYuODIwNTkgMjMuODg5OUw3MS4xNDYzIDIzLjg4NjVMNzEuMTQ2MiAyMS4wNzUyTDYuODIwNDQgMjEuMDc4NloiIGZpbGw9IndoaXRlIiBzdHJva2U9IiMwMDU1REMiIHN0cm9rZS13aWR0aD0iMS41IiBzdHJva2UtbWl0ZXJsaW1pdD0iMTAiLz4KPHBhdGggZD0iTTc1LjA4OTkgMUgyLjg3Nzk0VjIxLjA3NjJINzUuMDg5OVYxWiIgZmlsbD0iI0M1RUJGNSIgc3Ryb2tlPSIjMDA1NURDIiBzdHJva2Utd2lkdGg9IjEuNSIgc3Ryb2tlLW1pdGVybGltaXQ9IjEwIi8+CjxwYXRoIGQ9Ik03MS45NzEyIDE4LjI0NTNWMy44MzAyNkw1Ljk5ODA1IDMuODMwMjZWMTguMjQ1M0w3MS45NzEyIDE4LjI0NTNaIiBmaWxsPSJ3aGl0ZSIvPgo8cGF0aCBkPSJNMTEuMzUyNiA3LjkwMDM5SDkuNzU0MThWOS40NjE2NUgxMS4zNTI2VjcuOTAwMzlaIiBmaWxsPSIjMDA1NURDIi8+CjxwYXRoIGQ9Ik0xMS4zNTI2IDEyLjU5OTVIOS43NTQxOFYxNC4xNjA4SDExLjM1MjZWMTIuNTk5NVoiIGZpbGw9IiMwMDU1REMiLz4KPHBhdGggZD0iTTEzLjU0MDggMTAuMTIzN0gxMS45NDI0VjExLjY4NUgxMy41NDA4VjEwLjEyMzdaIiBmaWxsPSIjMDA1NURDIi8+CjxwYXRoIGQ9Ik0xNS40ODY2IDcuOTAwMzlIMTMuODg4MVY5LjQ2MTY1SDE1LjQ4NjZWNy45MDAzOVoiIGZpbGw9IiMwMDU1REMiLz4KPHBhdGggZD0iTTE1LjQ4NjYgMTIuNTk5NUgxMy44ODgxVjE0LjE2MDhIMTUuNDg2NlYxMi41OTk1WiIgZmlsbD0iIzAwNTVEQyIvPgo8cGF0aCBkPSJNMTcuNTU0NSAxMC4xMjM3SDE1Ljk1NlYxMS42ODVIMTcuNTU0NVYxMC4xMjM3WiIgZmlsbD0iIzAwNTVEQyIvPgo8cGF0aCBkPSJNMjAuMDAwNSA3LjkwMDM5SDE4LjQwMjFWOS40NjE2NUgyMC4wMDA1VjcuOTAwMzlaIiBmaWxsPSIjMDA1NURDIi8+CjxwYXRoIGQ9Ik0yMC4wMDA1IDEyLjU5OTVIMTguNDAyMVYxNC4xNjA4SDIwLjAwMDVWMTIuNTk5NVoiIGZpbGw9IiMwMDU1REMiLz4KPHBhdGggZD0iTTIyLjA2NzggMTAuMTIzN0gyMC40Njk0VjExLjY4NUgyMi4wNjc4VjEwLjEyMzdaIiBmaWxsPSIjMDA1NURDIi8+CjxwYXRoIGQ9Ik0yNC41ODMgNy45MDAzOUgyMi45ODQ2VjkuNDYxNjVIMjQuNTgzVjcuOTAwMzlaIiBmaWxsPSIjMDA1NURDIi8+CjxwYXRoIGQ9Ik0yNC41ODMgMTIuNTk5NUgyMi45ODQ2VjE0LjE2MDhIMjQuNTgzVjEyLjU5OTVaIiBmaWxsPSIjMDA1NURDIi8+CjxwYXRoIGQ9Ik0yNi41Mjg3IDEwLjEyMzdIMjQuOTMwM1YxMS42ODVIMjYuNTI4N1YxMC4xMjM3WiIgZmlsbD0iIzAwNTVEQyIvPgo8cGF0aCBkPSJNMjguNzE2OSA3LjkwMDM5SDI3LjExODVWOS40NjE2NUgyOC43MTY5VjcuOTAwMzlaIiBmaWxsPSIjMDA1NURDIi8+CjxwYXRoIGQ9Ik0yOC43MTY5IDEyLjU5OTVIMjcuMTE4NVYxNC4xNjA4SDI4LjcxNjlWMTIuNTk5NVoiIGZpbGw9IiMwMDU1REMiLz4KPHBhdGggZD0iTTMwLjU0MjQgMTAuMTIzN0gyOC45NDRWMTEuNjg1SDMwLjU0MjRWMTAuMTIzN1oiIGZpbGw9IiMwMDU1REMiLz4KPHBhdGggZD0iTTMyLjg1MjggNy45MDAzOUgzMS4yNTQ0VjkuNDYxNjVIMzIuODUyOFY3LjkwMDM5WiIgZmlsbD0iIzAwNTVEQyIvPgo8cGF0aCBkPSJNMzIuODUyOCAxMi41OTk1SDMxLjI1NDRWMTQuMTYwOEgzMi44NTI4VjEyLjU5OTVaIiBmaWxsPSIjMDA1NURDIi8+CjxwYXRoIGQ9Ik0zNC41NTYgMTAuMTIzN0gzMi45NTc2VjExLjY4NUgzNC41NTZWMTAuMTIzN1oiIGZpbGw9IiMwMDU1REMiLz4KPHBhdGggZD0iTTY2LjcyOTkgMTIuOTc2M0M2Ny44MjU4IDEyLjk3NjMgNjguNzE0MiAxMi4xMDg1IDY4LjcxNDIgMTEuMDM4MkM2OC43MTQyIDkuOTY3NzYgNjcuODI1OCA5LjEwMDA0IDY2LjcyOTkgOS4xMDAwNEM2NS42MzQgOS4xMDAwNCA2NC43NDU2IDkuOTY3NzYgNjQuNzQ1NiAxMS4wMzgyQzY0Ljc0NTYgMTIuMTA4NSA2NS42MzQgMTIuOTc2MyA2Ni43Mjk5IDEyLjk3NjNaIiBmaWxsPSIjMDA1NURDIi8+CjxwYXRoIGQ9Ik02MS4wMjQyIDExLjAzOEg0MC4wMDg1IiBzdHJva2U9IiMwMDU1REMiIHN0cm9rZS13aWR0aD0iMS41IiBzdHJva2UtbWl0ZXJsaW1pdD0iMTAiLz4KPC9zdmc+Cg==;" vertex="1" parent="1">
          <mxGeometry x="270" y="145" width="78" height="25" as="geometry" />
        </mxCell>
        <mxCell id="zqN81Qe1Mx1F9NyAOP3Z-13" value="Hong Kong" style="text;strokeColor=none;align=center;fillColor=none;html=1;verticalAlign=middle;whiteSpace=wrap;rounded=0;fontStyle=1;fontColor=#f38020;" vertex="1" parent="1">
          <mxGeometry x="150" y="30" width="80" height="30" as="geometry" />
        </mxCell>
        <mxCell id="zqN81Qe1Mx1F9NyAOP3Z-14" value="&lt;div&gt;&lt;b&gt;Interfaces&lt;/b&gt;&lt;/div&gt;Loopback -&amp;nbsp;172.17.255.251/32&lt;div&gt;GRE1 -&amp;nbsp;10.10.10.100/31&lt;/div&gt;&lt;div&gt;&lt;br&gt;&lt;/div&gt;&lt;div&gt;Routes to CF GRE -&amp;nbsp;&lt;/div&gt;&lt;div&gt;&lt;span style=&quot;white-space: pre;&quot;&gt;&#x9;&lt;/span&gt;172.17.255.0/24&lt;/div&gt;&lt;div&gt;&lt;span style=&quot;white-space: pre;&quot;&gt;&#x9;&lt;/span&gt;10.10.10.0/24&lt;br&gt;&lt;/div&gt;" style="text;strokeColor=none;align=left;fillColor=none;html=1;verticalAlign=middle;whiteSpace=wrap;rounded=0;fontSize=9;fontFamily=Courier New;" vertex="1" parent="1">
          <mxGeometry x="150" y="60" width="170" height="80" as="geometry" />
        </mxCell>
        <mxCell id="zqN81Qe1Mx1F9NyAOP3Z-15" value="" style="edgeStyle=none;orthogonalLoop=1;jettySize=auto;html=1;rounded=0;shape=link;exitX=0.959;exitY=0.852;exitDx=0;exitDy=0;exitPerimeter=0;entryX=0.168;entryY=0.25;entryDx=0;entryDy=0;entryPerimeter=0;strokeWidth=1;strokeColor=#67AB9F;" edge="1" parent="1" source="zqN81Qe1Mx1F9NyAOP3Z-11" target="zqN81Qe1Mx1F9NyAOP3Z-10">
          <mxGeometry width="80" relative="1" as="geometry">
            <mxPoint x="310" y="175" as="sourcePoint" />
            <mxPoint x="369.69000000000005" y="215" as="targetPoint" />
          </mxGeometry>
        </mxCell>
        <mxCell id="zqN81Qe1Mx1F9NyAOP3Z-18" value="&lt;font style=&quot;font-size: 4px;&quot;&gt;GRE Tunnel&lt;/font&gt;" style="text;strokeColor=none;align=center;fillColor=none;html=1;verticalAlign=middle;whiteSpace=wrap;rounded=0;rotation=0;fontStyle=1" vertex="1" parent="1">
          <mxGeometry x="335" y="180" width="60" height="30" as="geometry" />
        </mxCell>
        <mxCell id="zqN81Qe1Mx1F9NyAOP3Z-20" value="" style="whiteSpace=wrap;html=1;fillColor=none;dashed=1;strokeColor=#7EA6E0;" vertex="1" parent="1">
          <mxGeometry x="150" y="294" width="200" height="120" as="geometry" />
        </mxCell>
        <mxCell id="zqN81Qe1Mx1F9NyAOP3Z-21" value="" style="shape=image;aspect=fixed;image=data:image/svg+xml,PHN2ZyB3aWR0aD0iNzgiIGhlaWdodD0iMjUiIHZpZXdCb3g9IjAgMCA3OCAyNSIgZmlsbD0ibm9uZSIgeG1sbnM9Imh0dHA6Ly93d3cudzMub3JnLzIwMDAvc3ZnIj4KPHBhdGggZD0iTTIuODc4MzUgMy42MjQ4OEgwVjE4LjQzOUgyLjg3ODM1VjMuNjI0ODhaIiBmaWxsPSIjMDA1NURDIi8+CjxwYXRoIGQ9Ik03Ny45Njg3IDMuNjI0ODhINzUuMDkwNFYxOC40MzlINzcuOTY4N1YzLjYyNDg4WiIgZmlsbD0iIzAwNTVEQyIvPgo8cGF0aCBkPSJNNi44MjA0NCAyMS4wNzg2TDYuODIwNTkgMjMuODg5OUw3MS4xNDYzIDIzLjg4NjVMNzEuMTQ2MiAyMS4wNzUyTDYuODIwNDQgMjEuMDc4NloiIGZpbGw9IndoaXRlIiBzdHJva2U9IiMwMDU1REMiIHN0cm9rZS13aWR0aD0iMS41IiBzdHJva2UtbWl0ZXJsaW1pdD0iMTAiLz4KPHBhdGggZD0iTTc1LjA4OTkgMUgyLjg3Nzk0VjIxLjA3NjJINzUuMDg5OVYxWiIgZmlsbD0iI0M1RUJGNSIgc3Ryb2tlPSIjMDA1NURDIiBzdHJva2Utd2lkdGg9IjEuNSIgc3Ryb2tlLW1pdGVybGltaXQ9IjEwIi8+CjxwYXRoIGQ9Ik03MS45NzEyIDE4LjI0NTNWMy44MzAyNkw1Ljk5ODA1IDMuODMwMjZWMTguMjQ1M0w3MS45NzEyIDE4LjI0NTNaIiBmaWxsPSJ3aGl0ZSIvPgo8cGF0aCBkPSJNMTEuMzUyNiA3LjkwMDM5SDkuNzU0MThWOS40NjE2NUgxMS4zNTI2VjcuOTAwMzlaIiBmaWxsPSIjMDA1NURDIi8+CjxwYXRoIGQ9Ik0xMS4zNTI2IDEyLjU5OTVIOS43NTQxOFYxNC4xNjA4SDExLjM1MjZWMTIuNTk5NVoiIGZpbGw9IiMwMDU1REMiLz4KPHBhdGggZD0iTTEzLjU0MDggMTAuMTIzN0gxMS45NDI0VjExLjY4NUgxMy41NDA4VjEwLjEyMzdaIiBmaWxsPSIjMDA1NURDIi8+CjxwYXRoIGQ9Ik0xNS40ODY2IDcuOTAwMzlIMTMuODg4MVY5LjQ2MTY1SDE1LjQ4NjZWNy45MDAzOVoiIGZpbGw9IiMwMDU1REMiLz4KPHBhdGggZD0iTTE1LjQ4NjYgMTIuNTk5NUgxMy44ODgxVjE0LjE2MDhIMTUuNDg2NlYxMi41OTk1WiIgZmlsbD0iIzAwNTVEQyIvPgo8cGF0aCBkPSJNMTcuNTU0NSAxMC4xMjM3SDE1Ljk1NlYxMS42ODVIMTcuNTU0NVYxMC4xMjM3WiIgZmlsbD0iIzAwNTVEQyIvPgo8cGF0aCBkPSJNMjAuMDAwNSA3LjkwMDM5SDE4LjQwMjFWOS40NjE2NUgyMC4wMDA1VjcuOTAwMzlaIiBmaWxsPSIjMDA1NURDIi8+CjxwYXRoIGQ9Ik0yMC4wMDA1IDEyLjU5OTVIMTguNDAyMVYxNC4xNjA4SDIwLjAwMDVWMTIuNTk5NVoiIGZpbGw9IiMwMDU1REMiLz4KPHBhdGggZD0iTTIyLjA2NzggMTAuMTIzN0gyMC40Njk0VjExLjY4NUgyMi4wNjc4VjEwLjEyMzdaIiBmaWxsPSIjMDA1NURDIi8+CjxwYXRoIGQ9Ik0yNC41ODMgNy45MDAzOUgyMi45ODQ2VjkuNDYxNjVIMjQuNTgzVjcuOTAwMzlaIiBmaWxsPSIjMDA1NURDIi8+CjxwYXRoIGQ9Ik0yNC41ODMgMTIuNTk5NUgyMi45ODQ2VjE0LjE2MDhIMjQuNTgzVjEyLjU5OTVaIiBmaWxsPSIjMDA1NURDIi8+CjxwYXRoIGQ9Ik0yNi41Mjg3IDEwLjEyMzdIMjQuOTMwM1YxMS42ODVIMjYuNTI4N1YxMC4xMjM3WiIgZmlsbD0iIzAwNTVEQyIvPgo8cGF0aCBkPSJNMjguNzE2OSA3LjkwMDM5SDI3LjExODVWOS40NjE2NUgyOC43MTY5VjcuOTAwMzlaIiBmaWxsPSIjMDA1NURDIi8+CjxwYXRoIGQ9Ik0yOC43MTY5IDEyLjU5OTVIMjcuMTE4NVYxNC4xNjA4SDI4LjcxNjlWMTIuNTk5NVoiIGZpbGw9IiMwMDU1REMiLz4KPHBhdGggZD0iTTMwLjU0MjQgMTAuMTIzN0gyOC45NDRWMTEuNjg1SDMwLjU0MjRWMTAuMTIzN1oiIGZpbGw9IiMwMDU1REMiLz4KPHBhdGggZD0iTTMyLjg1MjggNy45MDAzOUgzMS4yNTQ0VjkuNDYxNjVIMzIuODUyOFY3LjkwMDM5WiIgZmlsbD0iIzAwNTVEQyIvPgo8cGF0aCBkPSJNMzIuODUyOCAxMi41OTk1SDMxLjI1NDRWMTQuMTYwOEgzMi44NTI4VjEyLjU5OTVaIiBmaWxsPSIjMDA1NURDIi8+CjxwYXRoIGQ9Ik0zNC41NTYgMTAuMTIzN0gzMi45NTc2VjExLjY4NUgzNC41NTZWMTAuMTIzN1oiIGZpbGw9IiMwMDU1REMiLz4KPHBhdGggZD0iTTY2LjcyOTkgMTIuOTc2M0M2Ny44MjU4IDEyLjk3NjMgNjguNzE0MiAxMi4xMDg1IDY4LjcxNDIgMTEuMDM4MkM2OC43MTQyIDkuOTY3NzYgNjcuODI1OCA5LjEwMDA0IDY2LjcyOTkgOS4xMDAwNEM2NS42MzQgOS4xMDAwNCA2NC43NDU2IDkuOTY3NzYgNjQuNzQ1NiAxMS4wMzgyQzY0Ljc0NTYgMTIuMTA4NSA2NS42MzQgMTIuOTc2MyA2Ni43Mjk5IDEyLjk3NjNaIiBmaWxsPSIjMDA1NURDIi8+CjxwYXRoIGQ9Ik02MS4wMjQyIDExLjAzOEg0MC4wMDg1IiBzdHJva2U9IiMwMDU1REMiIHN0cm9rZS13aWR0aD0iMS41IiBzdHJva2UtbWl0ZXJsaW1pdD0iMTAiLz4KPC9zdmc+Cg==;" vertex="1" parent="1">
          <mxGeometry x="270" y="300" width="78" height="25" as="geometry" />
        </mxCell>
        <mxCell id="zqN81Qe1Mx1F9NyAOP3Z-22" value="&lt;div&gt;&lt;b&gt;Interfaces&lt;/b&gt;&lt;/div&gt;Loopback -&amp;nbsp;172.17.255.253/32&lt;div&gt;GRE1 -&amp;nbsp;10.10.10.104/31&lt;/div&gt;&lt;div&gt;&lt;br&gt;&lt;/div&gt;&lt;div&gt;Routes to CF GRE -&amp;nbsp;&lt;/div&gt;&lt;div&gt;&lt;span style=&quot;white-space: pre;&quot;&gt;&#x9;&lt;/span&gt;172.17.255.0/24&lt;/div&gt;&lt;div&gt;&lt;span style=&quot;white-space: pre;&quot;&gt;&#x9;&lt;/span&gt;10.10.10.0/24&lt;br&gt;&lt;/div&gt;" style="text;strokeColor=none;align=left;fillColor=none;html=1;verticalAlign=middle;whiteSpace=wrap;rounded=0;fontSize=9;fontFamily=Courier New;" vertex="1" parent="1">
          <mxGeometry x="150" y="334" width="170" height="80" as="geometry" />
        </mxCell>
        <mxCell id="zqN81Qe1Mx1F9NyAOP3Z-23" value="" style="whiteSpace=wrap;html=1;fillColor=none;dashed=1;strokeColor=#7EA6E0;" vertex="1" parent="1">
          <mxGeometry x="520" y="55" width="200" height="120" as="geometry" />
        </mxCell>
        <mxCell id="zqN81Qe1Mx1F9NyAOP3Z-24" value="" style="shape=image;aspect=fixed;image=data:image/svg+xml,PHN2ZyB3aWR0aD0iNzgiIGhlaWdodD0iMjUiIHZpZXdCb3g9IjAgMCA3OCAyNSIgZmlsbD0ibm9uZSIgeG1sbnM9Imh0dHA6Ly93d3cudzMub3JnLzIwMDAvc3ZnIj4KPHBhdGggZD0iTTIuODc4MzUgMy42MjQ4OEgwVjE4LjQzOUgyLjg3ODM1VjMuNjI0ODhaIiBmaWxsPSIjMDA1NURDIi8+CjxwYXRoIGQ9Ik03Ny45Njg3IDMuNjI0ODhINzUuMDkwNFYxOC40MzlINzcuOTY4N1YzLjYyNDg4WiIgZmlsbD0iIzAwNTVEQyIvPgo8cGF0aCBkPSJNNi44MjA0NCAyMS4wNzg2TDYuODIwNTkgMjMuODg5OUw3MS4xNDYzIDIzLjg4NjVMNzEuMTQ2MiAyMS4wNzUyTDYuODIwNDQgMjEuMDc4NloiIGZpbGw9IndoaXRlIiBzdHJva2U9IiMwMDU1REMiIHN0cm9rZS13aWR0aD0iMS41IiBzdHJva2UtbWl0ZXJsaW1pdD0iMTAiLz4KPHBhdGggZD0iTTc1LjA4OTkgMUgyLjg3Nzk0VjIxLjA3NjJINzUuMDg5OVYxWiIgZmlsbD0iI0M1RUJGNSIgc3Ryb2tlPSIjMDA1NURDIiBzdHJva2Utd2lkdGg9IjEuNSIgc3Ryb2tlLW1pdGVybGltaXQ9IjEwIi8+CjxwYXRoIGQ9Ik03MS45NzEyIDE4LjI0NTNWMy44MzAyNkw1Ljk5ODA1IDMuODMwMjZWMTguMjQ1M0w3MS45NzEyIDE4LjI0NTNaIiBmaWxsPSJ3aGl0ZSIvPgo8cGF0aCBkPSJNMTEuMzUyNiA3LjkwMDM5SDkuNzU0MThWOS40NjE2NUgxMS4zNTI2VjcuOTAwMzlaIiBmaWxsPSIjMDA1NURDIi8+CjxwYXRoIGQ9Ik0xMS4zNTI2IDEyLjU5OTVIOS43NTQxOFYxNC4xNjA4SDExLjM1MjZWMTIuNTk5NVoiIGZpbGw9IiMwMDU1REMiLz4KPHBhdGggZD0iTTEzLjU0MDggMTAuMTIzN0gxMS45NDI0VjExLjY4NUgxMy41NDA4VjEwLjEyMzdaIiBmaWxsPSIjMDA1NURDIi8+CjxwYXRoIGQ9Ik0xNS40ODY2IDcuOTAwMzlIMTMuODg4MVY5LjQ2MTY1SDE1LjQ4NjZWNy45MDAzOVoiIGZpbGw9IiMwMDU1REMiLz4KPHBhdGggZD0iTTE1LjQ4NjYgMTIuNTk5NUgxMy44ODgxVjE0LjE2MDhIMTUuNDg2NlYxMi41OTk1WiIgZmlsbD0iIzAwNTVEQyIvPgo8cGF0aCBkPSJNMTcuNTU0NSAxMC4xMjM3SDE1Ljk1NlYxMS42ODVIMTcuNTU0NVYxMC4xMjM3WiIgZmlsbD0iIzAwNTVEQyIvPgo8cGF0aCBkPSJNMjAuMDAwNSA3LjkwMDM5SDE4LjQwMjFWOS40NjE2NUgyMC4wMDA1VjcuOTAwMzlaIiBmaWxsPSIjMDA1NURDIi8+CjxwYXRoIGQ9Ik0yMC4wMDA1IDEyLjU5OTVIMTguNDAyMVYxNC4xNjA4SDIwLjAwMDVWMTIuNTk5NVoiIGZpbGw9IiMwMDU1REMiLz4KPHBhdGggZD0iTTIyLjA2NzggMTAuMTIzN0gyMC40Njk0VjExLjY4NUgyMi4wNjc4VjEwLjEyMzdaIiBmaWxsPSIjMDA1NURDIi8+CjxwYXRoIGQ9Ik0yNC41ODMgNy45MDAzOUgyMi45ODQ2VjkuNDYxNjVIMjQuNTgzVjcuOTAwMzlaIiBmaWxsPSIjMDA1NURDIi8+CjxwYXRoIGQ9Ik0yNC41ODMgMTIuNTk5NUgyMi45ODQ2VjE0LjE2MDhIMjQuNTgzVjEyLjU5OTVaIiBmaWxsPSIjMDA1NURDIi8+CjxwYXRoIGQ9Ik0yNi41Mjg3IDEwLjEyMzdIMjQuOTMwM1YxMS42ODVIMjYuNTI4N1YxMC4xMjM3WiIgZmlsbD0iIzAwNTVEQyIvPgo8cGF0aCBkPSJNMjguNzE2OSA3LjkwMDM5SDI3LjExODVWOS40NjE2NUgyOC43MTY5VjcuOTAwMzlaIiBmaWxsPSIjMDA1NURDIi8+CjxwYXRoIGQ9Ik0yOC43MTY5IDEyLjU5OTVIMjcuMTE4NVYxNC4xNjA4SDI4LjcxNjlWMTIuNTk5NVoiIGZpbGw9IiMwMDU1REMiLz4KPHBhdGggZD0iTTMwLjU0MjQgMTAuMTIzN0gyOC45NDRWMTEuNjg1SDMwLjU0MjRWMTAuMTIzN1oiIGZpbGw9IiMwMDU1REMiLz4KPHBhdGggZD0iTTMyLjg1MjggNy45MDAzOUgzMS4yNTQ0VjkuNDYxNjVIMzIuODUyOFY3LjkwMDM5WiIgZmlsbD0iIzAwNTVEQyIvPgo8cGF0aCBkPSJNMzIuODUyOCAxMi41OTk1SDMxLjI1NDRWMTQuMTYwOEgzMi44NTI4VjEyLjU5OTVaIiBmaWxsPSIjMDA1NURDIi8+CjxwYXRoIGQ9Ik0zNC41NTYgMTAuMTIzN0gzMi45NTc2VjExLjY4NUgzNC41NTZWMTAuMTIzN1oiIGZpbGw9IiMwMDU1REMiLz4KPHBhdGggZD0iTTY2LjcyOTkgMTIuOTc2M0M2Ny44MjU4IDEyLjk3NjMgNjguNzE0MiAxMi4xMDg1IDY4LjcxNDIgMTEuMDM4MkM2OC43MTQyIDkuOTY3NzYgNjcuODI1OCA5LjEwMDA0IDY2LjcyOTkgOS4xMDAwNEM2NS42MzQgOS4xMDAwNCA2NC43NDU2IDkuOTY3NzYgNjQuNzQ1NiAxMS4wMzgyQzY0Ljc0NTYgMTIuMTA4NSA2NS42MzQgMTIuOTc2MyA2Ni43Mjk5IDEyLjk3NjNaIiBmaWxsPSIjMDA1NURDIi8+CjxwYXRoIGQ9Ik02MS4wMjQyIDExLjAzOEg0MC4wMDg1IiBzdHJva2U9IiMwMDU1REMiIHN0cm9rZS13aWR0aD0iMS41IiBzdHJva2UtbWl0ZXJsaW1pdD0iMTAiLz4KPC9zdmc+Cg==;" vertex="1" parent="1">
          <mxGeometry x="520" y="145" width="78" height="25" as="geometry" />
        </mxCell>
        <mxCell id="zqN81Qe1Mx1F9NyAOP3Z-25" value="&lt;div&gt;&lt;b&gt;Interfaces&lt;/b&gt;&lt;/div&gt;Loopback -&amp;nbsp;172.17.255.252/32&lt;div&gt;GRE1 -&amp;nbsp;10.10.10.102/31&lt;/div&gt;&lt;div&gt;&lt;br&gt;&lt;/div&gt;&lt;div&gt;Routes to CF GRE -&amp;nbsp;&lt;/div&gt;&lt;div&gt;&lt;span style=&quot;white-space: pre;&quot;&gt;&#x9;&lt;/span&gt;172.17.255.0/24&lt;/div&gt;&lt;div&gt;&lt;span style=&quot;white-space: pre;&quot;&gt;&#x9;&lt;/span&gt;10.10.10.0/24&lt;br&gt;&lt;/div&gt;" style="text;strokeColor=none;align=left;fillColor=none;html=1;verticalAlign=middle;whiteSpace=wrap;rounded=0;fontSize=9;fontFamily=Courier New;" vertex="1" parent="1">
          <mxGeometry x="520" y="55" width="170" height="80" as="geometry" />
        </mxCell>
        <mxCell id="zqN81Qe1Mx1F9NyAOP3Z-26" value="" style="whiteSpace=wrap;html=1;fillColor=none;dashed=1;strokeColor=#7EA6E0;" vertex="1" parent="1">
          <mxGeometry x="520" y="294" width="200" height="120" as="geometry" />
        </mxCell>
        <mxCell id="zqN81Qe1Mx1F9NyAOP3Z-27" value="" style="shape=image;aspect=fixed;image=data:image/svg+xml,PHN2ZyB3aWR0aD0iNzgiIGhlaWdodD0iMjUiIHZpZXdCb3g9IjAgMCA3OCAyNSIgZmlsbD0ibm9uZSIgeG1sbnM9Imh0dHA6Ly93d3cudzMub3JnLzIwMDAvc3ZnIj4KPHBhdGggZD0iTTIuODc4MzUgMy42MjQ4OEgwVjE4LjQzOUgyLjg3ODM1VjMuNjI0ODhaIiBmaWxsPSIjMDA1NURDIi8+CjxwYXRoIGQ9Ik03Ny45Njg3IDMuNjI0ODhINzUuMDkwNFYxOC40MzlINzcuOTY4N1YzLjYyNDg4WiIgZmlsbD0iIzAwNTVEQyIvPgo8cGF0aCBkPSJNNi44MjA0NCAyMS4wNzg2TDYuODIwNTkgMjMuODg5OUw3MS4xNDYzIDIzLjg4NjVMNzEuMTQ2MiAyMS4wNzUyTDYuODIwNDQgMjEuMDc4NloiIGZpbGw9IndoaXRlIiBzdHJva2U9IiMwMDU1REMiIHN0cm9rZS13aWR0aD0iMS41IiBzdHJva2UtbWl0ZXJsaW1pdD0iMTAiLz4KPHBhdGggZD0iTTc1LjA4OTkgMUgyLjg3Nzk0VjIxLjA3NjJINzUuMDg5OVYxWiIgZmlsbD0iI0M1RUJGNSIgc3Ryb2tlPSIjMDA1NURDIiBzdHJva2Utd2lkdGg9IjEuNSIgc3Ryb2tlLW1pdGVybGltaXQ9IjEwIi8+CjxwYXRoIGQ9Ik03MS45NzEyIDE4LjI0NTNWMy44MzAyNkw1Ljk5ODA1IDMuODMwMjZWMTguMjQ1M0w3MS45NzEyIDE4LjI0NTNaIiBmaWxsPSJ3aGl0ZSIvPgo8cGF0aCBkPSJNMTEuMzUyNiA3LjkwMDM5SDkuNzU0MThWOS40NjE2NUgxMS4zNTI2VjcuOTAwMzlaIiBmaWxsPSIjMDA1NURDIi8+CjxwYXRoIGQ9Ik0xMS4zNTI2IDEyLjU5OTVIOS43NTQxOFYxNC4xNjA4SDExLjM1MjZWMTIuNTk5NVoiIGZpbGw9IiMwMDU1REMiLz4KPHBhdGggZD0iTTEzLjU0MDggMTAuMTIzN0gxMS45NDI0VjExLjY4NUgxMy41NDA4VjEwLjEyMzdaIiBmaWxsPSIjMDA1NURDIi8+CjxwYXRoIGQ9Ik0xNS40ODY2IDcuOTAwMzlIMTMuODg4MVY5LjQ2MTY1SDE1LjQ4NjZWNy45MDAzOVoiIGZpbGw9IiMwMDU1REMiLz4KPHBhdGggZD0iTTE1LjQ4NjYgMTIuNTk5NUgxMy44ODgxVjE0LjE2MDhIMTUuNDg2NlYxMi41OTk1WiIgZmlsbD0iIzAwNTVEQyIvPgo8cGF0aCBkPSJNMTcuNTU0NSAxMC4xMjM3SDE1Ljk1NlYxMS42ODVIMTcuNTU0NVYxMC4xMjM3WiIgZmlsbD0iIzAwNTVEQyIvPgo8cGF0aCBkPSJNMjAuMDAwNSA3LjkwMDM5SDE4LjQwMjFWOS40NjE2NUgyMC4wMDA1VjcuOTAwMzlaIiBmaWxsPSIjMDA1NURDIi8+CjxwYXRoIGQ9Ik0yMC4wMDA1IDEyLjU5OTVIMTguNDAyMVYxNC4xNjA4SDIwLjAwMDVWMTIuNTk5NVoiIGZpbGw9IiMwMDU1REMiLz4KPHBhdGggZD0iTTIyLjA2NzggMTAuMTIzN0gyMC40Njk0VjExLjY4NUgyMi4wNjc4VjEwLjEyMzdaIiBmaWxsPSIjMDA1NURDIi8+CjxwYXRoIGQ9Ik0yNC41ODMgNy45MDAzOUgyMi45ODQ2VjkuNDYxNjVIMjQuNTgzVjcuOTAwMzlaIiBmaWxsPSIjMDA1NURDIi8+CjxwYXRoIGQ9Ik0yNC41ODMgMTIuNTk5NUgyMi45ODQ2VjE0LjE2MDhIMjQuNTgzVjEyLjU5OTVaIiBmaWxsPSIjMDA1NURDIi8+CjxwYXRoIGQ9Ik0yNi41Mjg3IDEwLjEyMzdIMjQuOTMwM1YxMS42ODVIMjYuNTI4N1YxMC4xMjM3WiIgZmlsbD0iIzAwNTVEQyIvPgo8cGF0aCBkPSJNMjguNzE2OSA3LjkwMDM5SDI3LjExODVWOS40NjE2NUgyOC43MTY5VjcuOTAwMzlaIiBmaWxsPSIjMDA1NURDIi8+CjxwYXRoIGQ9Ik0yOC43MTY5IDEyLjU5OTVIMjcuMTE4NVYxNC4xNjA4SDI4LjcxNjlWMTIuNTk5NVoiIGZpbGw9IiMwMDU1REMiLz4KPHBhdGggZD0iTTMwLjU0MjQgMTAuMTIzN0gyOC45NDRWMTEuNjg1SDMwLjU0MjRWMTAuMTIzN1oiIGZpbGw9IiMwMDU1REMiLz4KPHBhdGggZD0iTTMyLjg1MjggNy45MDAzOUgzMS4yNTQ0VjkuNDYxNjVIMzIuODUyOFY3LjkwMDM5WiIgZmlsbD0iIzAwNTVEQyIvPgo8cGF0aCBkPSJNMzIuODUyOCAxMi41OTk1SDMxLjI1NDRWMTQuMTYwOEgzMi44NTI4VjEyLjU5OTVaIiBmaWxsPSIjMDA1NURDIi8+CjxwYXRoIGQ9Ik0zNC41NTYgMTAuMTIzN0gzMi45NTc2VjExLjY4NUgzNC41NTZWMTAuMTIzN1oiIGZpbGw9IiMwMDU1REMiLz4KPHBhdGggZD0iTTY2LjcyOTkgMTIuOTc2M0M2Ny44MjU4IDEyLjk3NjMgNjguNzE0MiAxMi4xMDg1IDY4LjcxNDIgMTEuMDM4MkM2OC43MTQyIDkuOTY3NzYgNjcuODI1OCA5LjEwMDA0IDY2LjcyOTkgOS4xMDAwNEM2NS42MzQgOS4xMDAwNCA2NC43NDU2IDkuOTY3NzYgNjQuNzQ1NiAxMS4wMzgyQzY0Ljc0NTYgMTIuMTA4NSA2NS42MzQgMTIuOTc2MyA2Ni43Mjk5IDEyLjk3NjNaIiBmaWxsPSIjMDA1NURDIi8+CjxwYXRoIGQ9Ik02MS4wMjQyIDExLjAzOEg0MC4wMDg1IiBzdHJva2U9IiMwMDU1REMiIHN0cm9rZS13aWR0aD0iMS41IiBzdHJva2UtbWl0ZXJsaW1pdD0iMTAiLz4KPC9zdmc+Cg==;" vertex="1" parent="1">
          <mxGeometry x="520" y="300" width="78" height="25" as="geometry" />
        </mxCell>
        <mxCell id="zqN81Qe1Mx1F9NyAOP3Z-29" value="" style="edgeStyle=none;orthogonalLoop=1;jettySize=auto;html=1;rounded=0;shape=link;exitX=0.168;exitY=0.75;exitDx=0;exitDy=0;exitPerimeter=0;entryX=0.978;entryY=0.379;entryDx=0;entryDy=0;entryPerimeter=0;strokeWidth=1;strokeColor=#67AB9F;" edge="1" parent="1" source="zqN81Qe1Mx1F9NyAOP3Z-10" target="zqN81Qe1Mx1F9NyAOP3Z-21">
          <mxGeometry width="80" relative="1" as="geometry">
            <mxPoint x="277.5" y="241" as="sourcePoint" />
            <mxPoint x="332.5" y="280" as="targetPoint" />
          </mxGeometry>
        </mxCell>
        <mxCell id="zqN81Qe1Mx1F9NyAOP3Z-30" value="&lt;font style=&quot;font-size: 4px;&quot;&gt;GRE Tunnel&lt;/font&gt;" style="text;strokeColor=none;align=center;fillColor=none;html=1;verticalAlign=middle;whiteSpace=wrap;rounded=0;rotation=0;fontStyle=1" vertex="1" parent="1">
          <mxGeometry x="335" y="264" width="60" height="30" as="geometry" />
        </mxCell>
        <mxCell id="zqN81Qe1Mx1F9NyAOP3Z-31" value="" style="edgeStyle=none;orthogonalLoop=1;jettySize=auto;html=1;rounded=0;shape=link;exitX=0.168;exitY=0.75;exitDx=0;exitDy=0;exitPerimeter=0;entryX=0.838;entryY=0.833;entryDx=0;entryDy=0;entryPerimeter=0;strokeWidth=1;strokeColor=#67AB9F;" edge="1" parent="1" target="zqN81Qe1Mx1F9NyAOP3Z-10">
          <mxGeometry width="80" relative="1" as="geometry">
            <mxPoint x="520" y="310" as="sourcePoint" />
            <mxPoint x="466" y="349" as="targetPoint" />
          </mxGeometry>
        </mxCell>
        <mxCell id="zqN81Qe1Mx1F9NyAOP3Z-32" value="&lt;font style=&quot;font-size: 4px;&quot;&gt;GRE Tunnel&lt;/font&gt;" style="text;strokeColor=none;align=center;fillColor=none;html=1;verticalAlign=middle;whiteSpace=wrap;rounded=0;rotation=0;fontStyle=1" vertex="1" parent="1">
          <mxGeometry x="480" y="260" width="60" height="30" as="geometry" />
        </mxCell>
        <mxCell id="zqN81Qe1Mx1F9NyAOP3Z-34" value="&lt;font style=&quot;font-size: 4px;&quot;&gt;GRE Tunnel&lt;/font&gt;" style="text;strokeColor=none;align=center;fillColor=none;html=1;verticalAlign=middle;whiteSpace=wrap;rounded=0;rotation=0;fontStyle=1" vertex="1" parent="1">
          <mxGeometry x="480" y="180" width="60" height="30" as="geometry" />
        </mxCell>
        <mxCell id="zqN81Qe1Mx1F9NyAOP3Z-35" value="" style="edgeStyle=none;orthogonalLoop=1;jettySize=auto;html=1;rounded=0;shape=link;exitX=0.959;exitY=0.852;exitDx=0;exitDy=0;exitPerimeter=0;strokeWidth=1;strokeColor=#67AB9F;entryX=0.754;entryY=0.25;entryDx=0;entryDy=0;entryPerimeter=0;" edge="1" parent="1" target="zqN81Qe1Mx1F9NyAOP3Z-10">
          <mxGeometry width="80" relative="1" as="geometry">
            <mxPoint x="520" y="161" as="sourcePoint" />
            <mxPoint x="575" y="200" as="targetPoint" />
          </mxGeometry>
        </mxCell>
        <mxCell id="zqN81Qe1Mx1F9NyAOP3Z-10" value="" style="shape=image;aspect=fixed;image=data:image/svg+xml,PHN2ZyB3aWR0aD0iMTkyIiBoZWlnaHQ9IjE5MyIgdmlld0JveD0iMCAwIDE5MiAxOTMiIGZpbGw9Im5vbmUiIHhtbG5zPSJodHRwOi8vd3d3LnczLm9yZy8yMDAwL3N2ZyI+CjxwYXRoIGQ9Ik0xOTAuNDY5IDk2LjQ1NDVDMTkwLjQ2OSAxNDkuMTggMTQ4LjA0OCAxOTEuOTA5IDk1LjczNDYgMTkxLjkwOUM0My40MjEyIDE5MS45MDkgMSAxNDkuMTggMSA5Ni40NTQ1QzEgNDMuNzI5MyA0My40MjEyIDEgOTUuNzM0NiAxQzE0OC4wNDggMSAxOTAuNDY5IDQzLjcyOTMgMTkwLjQ2OSA5Ni40NTQ1WiIgc3Ryb2tlPSIjRjY4MjFGIiBzdHJva2Utd2lkdGg9IjIiLz4KPGVsbGlwc2UgY3g9Ijk1LjYwNzgiIGN5PSI5Ni42NTk1IiByeD0iOTMuNjA3OCIgcnk9Ijk0LjY1OTUiIGZpbGw9IndoaXRlIi8+CjxwYXRoIGQ9Ik0xMjAuNzE5IDExNi44MjRDMTIxLjUyOCAxMTQuMDUgMTIxLjIyIDExMS41MDcgMTE5Ljg3MiAxMDkuNjE5QzExOC42MzkgMTA3Ljg4NSAxMTYuNTU5IDEwNi44ODQgMTE0LjA1NSAxMDYuNzY4TDY2LjYzNjYgMTA2LjE1MkM2Ni4zMjg1IDEwNi4xNTIgNjYuMDU4OCAxMDUuOTk3IDY1LjkwNDggMTA1Ljc2NkM2NS43NTA3IDEwNS41MzUgNjUuNzEyMiAxMDUuMjI3IDY1Ljc4OTIgMTA0LjkxOUM2NS45NDMzIDEwNC40NTYgNjYuNDA1NSAxMDQuMTEgNjYuOTA2MyAxMDQuMDcxTDExNC43NDggMTAzLjQ1NUMxMjAuNDExIDEwMy4xODUgMTI2LjU3NCA5OC41OTk5IDEyOC43MzEgOTIuOTc0N0wxMzEuNDY2IDg1Ljg0NjlDMTMxLjU4MiA4NS41Mzg3IDEzMS42MiA4NS4yMzA0IDEzMS41NDMgODQuOTIyMkMxMjguNDYyIDcwLjk3NDggMTE2LjAyIDYwLjU3MiAxMDEuMTUxIDYwLjU3MkM4Ny40Mzc2IDYwLjU3MiA3NS44MDQ1IDY5LjQzMzYgNzEuNjQ0MyA4MS43MjQzQzY4Ljk0NzkgNzkuNzIwOCA2NS41MTk2IDc4LjY0MiA2MS44MjE2IDc4Ljk4ODhDNTUuMjM0NiA3OS42NDM4IDQ5Ljk1NzQgODQuOTIyMiA0OS4zMDI1IDkxLjUxMDZDNDkuMTQ4NCA5My4yMDU5IDQ5LjI2NCA5NC44NjI2IDQ5LjY0OTIgOTYuNDAzOEMzOC45MDIgOTYuNzEyIDMwLjMxMiAxMDUuNDk3IDMwLjMxMiAxMTYuMzIzQzMwLjMxMiAxMTcuMjg2IDMwLjM4OTEgMTE4LjI1IDMwLjUwNDYgMTE5LjIxM0MzMC41ODE3IDExOS42NzUgMzAuOTY2OSAxMjAuMDIyIDMxLjQyOTEgMTIwLjAyMkgxMTguOTQ3QzExOS40NDggMTIwLjAyMiAxMTkuOTEgMTE5LjY3NSAxMjAuMDY0IDExOS4xNzRMMTIwLjcxOSAxMTYuODI0WiIgZmlsbD0iI0YzODAyMCIvPgo8cGF0aCBkPSJNMTM1LjgxOSA4Ni4zNDc3QzEzNS4zOTUgODYuMzQ3NyAxMzQuOTMzIDg2LjM0NzcgMTM0LjUwOSA4Ni4zODYyQzEzNC4yMDEgODYuMzg2MiAxMzMuOTMyIDg2LjYxNzQgMTMzLjgxNiA4Ni45MjU2TDEzMS45NjcgOTMuMzU5OUMxMzEuMTU4IDk2LjEzNCAxMzEuNDY2IDk4LjY3NjkgMTMyLjgxNSAxMDAuNTY1QzEzNC4wNDcgMTAyLjI5OSAxMzYuMTI3IDEwMy4zIDEzOC42MzEgMTAzLjQxNkwxNDguNzIzIDEwNC4wMzJDMTQ5LjAzMiAxMDQuMDMyIDE0OS4zMDEgMTA0LjE4NiAxNDkuNDU1IDEwNC40MThDMTQ5LjYwOSAxMDQuNjQ5IDE0OS42NDggMTA0Ljk5NiAxNDkuNTcxIDEwNS4yNjVDMTQ5LjQxNyAxMDUuNzI4IDE0OC45NTUgMTA2LjA3NCAxNDguNDU0IDEwNi4xMTNMMTM3LjkzOCAxMDYuNzI5QzEzMi4yMzcgMTA2Ljk5OSAxMjYuMTEyIDExMS41ODQgMTIzLjk1NSAxMTcuMjA5TDEyMy4xODUgMTE5LjE3NEMxMjMuMDMgMTE5LjU1OSAxMjMuMyAxMTkuOTQ1IDEyMy43MjQgMTE5Ljk0NUgxNTkuODU2QzE2MC4yOCAxMTkuOTQ1IDE2MC42NjUgMTE5LjY3NSAxNjAuNzggMTE5LjI1MUMxNjEuMzk3IDExNy4wMTcgMTYxLjc0MyAxMTQuNjY2IDE2MS43NDMgMTEyLjIzOUMxNjEuNzQzIDk3Ljk4MzMgMTUwLjExIDg2LjM0NzcgMTM1LjgxOSA4Ni4zNDc3WiIgZmlsbD0iI0ZBQUU0MCIvPgo8L3N2Zz4K;" vertex="1" parent="1">
          <mxGeometry x="380" y="180" width="119.38" height="120" as="geometry" />
        </mxCell>
        <mxCell id="zqN81Qe1Mx1F9NyAOP3Z-36" value="Mumbai" style="text;strokeColor=none;align=center;fillColor=none;html=1;verticalAlign=middle;whiteSpace=wrap;rounded=0;fontStyle=1;fontColor=#f38020;" vertex="1" parent="1">
          <mxGeometry x="505" y="30" width="80" height="30" as="geometry" />
        </mxCell>
        <mxCell id="zqN81Qe1Mx1F9NyAOP3Z-37" value="&lt;div&gt;&lt;b&gt;Interfaces&lt;/b&gt;&lt;/div&gt;Loopback -&amp;nbsp;172.17.255.254/32&lt;div&gt;GRE1 -&amp;nbsp;10.10.10.106/31&lt;/div&gt;&lt;div&gt;&lt;br&gt;&lt;/div&gt;&lt;div&gt;Routes to CF GRE -&amp;nbsp;&lt;/div&gt;&lt;div&gt;&lt;span style=&quot;white-space: pre;&quot;&gt;&#x9;&lt;/span&gt;172.17.255.0/24&lt;/div&gt;&lt;div&gt;&lt;span style=&quot;white-space: pre;&quot;&gt;&#x9;&lt;/span&gt;10.10.10.0/24&lt;br&gt;&lt;/div&gt;" style="text;strokeColor=none;align=left;fillColor=none;html=1;verticalAlign=middle;whiteSpace=wrap;rounded=0;fontSize=9;fontFamily=Courier New;" vertex="1" parent="1">
          <mxGeometry x="520" y="334" width="170" height="80" as="geometry" />
        </mxCell>
        <mxCell id="zqN81Qe1Mx1F9NyAOP3Z-38" value="Sydney" style="text;strokeColor=none;align=center;fillColor=none;html=1;verticalAlign=middle;whiteSpace=wrap;rounded=0;fontStyle=1;fontColor=#f38020;" vertex="1" parent="1">
          <mxGeometry x="150" y="270" width="80" height="30" as="geometry" />
        </mxCell>
        <mxCell id="zqN81Qe1Mx1F9NyAOP3Z-39" value="Tokyo" style="text;strokeColor=none;align=center;fillColor=none;html=1;verticalAlign=middle;whiteSpace=wrap;rounded=0;fontStyle=1;fontColor=#f38020;" vertex="1" parent="1">
          <mxGeometry x="520" y="270" width="80" height="30" as="geometry" />
        </mxCell>
        <mxCell id="zqN81Qe1Mx1F9NyAOP3Z-40" value="&lt;div&gt;&lt;b&gt;Anycast GRE IPs&lt;/b&gt;&lt;/div&gt;&lt;div&gt;&lt;b&gt;Assigned&lt;/b&gt;&lt;/div&gt;&lt;div&gt;&lt;b&gt;&lt;br&gt;&lt;/b&gt;&lt;/div&gt;&lt;div&gt;Static Routes added to Cloudflare to route to Loopbacks&lt;/div&gt;" style="text;strokeColor=none;align=center;fillColor=none;html=1;verticalAlign=middle;whiteSpace=wrap;rounded=0;fontSize=9;fontFamily=Courier New;" vertex="1" parent="1">
          <mxGeometry x="395" y="310" width="95.31" height="80" as="geometry" />
        </mxCell>
      </root>
    </mxGraphModel>
  </diagram>
</mxfile>
